<svg width="1676" height="147" viewBox="0 0 1676 147" fill="none" xmlns="http://www.w3.org/2000/svg">
<g clip-path="url(#clip0_25_2)">
<path d="M1541.19 67.78L1541.17 67.75" stroke="white" stroke-width="2" stroke-miterlimit="10.02"/>
<path d="M1461 68.5144C1340.03 68.0992 1232.79 75.8179 1112.67 90.1761C1014.78 101.949 949.184 114.101 802.277 130.05C550.033 157.424 486.715 137.028 455.189 96.1572C438.251 74.1665 416.95 28.1417 432.381 10.4276C441.534 -0.0793075 464.065 -1.15591 478.989 9.4307C493.914 20.0173 501.233 42.3768 493.865 53.2924C483.551 68.5941 448.793 56.8811 387.755 46.3144C317.038 34.073 270.439 25.9985 214.211 33.3553C139.22 43.1643 86.8497 75.2232 71.4092 85.1918C45.2779 102.122 21.5863 122.583 1 146" stroke="white" stroke-width="2" stroke-miterlimit="10" stroke-dasharray="15 20"/>
<path d="M1675.79 64.7374L1520.86 16.887L1562.51 62.406M1675.79 64.7374L1594.44 136.026L1582.48 101.703M1675.79 64.7374L1574.99 80.1993M1675.79 64.7374L1562.51 62.406M1574.99 80.1993L1536.91 101.188M1574.99 80.1993L1582.48 101.703M1562.51 62.406L1536.91 101.188M1536.91 101.188L1582.48 101.703" stroke="white" stroke-width="2.5"/>
<path d="M1511.71 62.0172C1523.72 58.9592 1535.08 70.4273 1535.08 70.4273C1535.08 70.4273 1528.35 74.732 1515.8 77.911C1503.25 81.09 1487.94 65.8997 1487.94 65.8997C1487.94 65.8997 1499.71 65.0751 1511.71 62.0172Z" stroke="white" stroke-width="2.5"/>
</g>
<defs>
<clipPath id="clip0_25_2">
<rect width="1675.17" height="146.89" fill="white"/>
</clipPath>
</defs>
</svg>
