<svg id="Layer_1" data-name="Layer 1" xmlns="http://www.w3.org/2000/svg" viewBox="0 0 1675.17 146.89"><defs><style>.cls-1,.cls-2{fill:none;stroke:#40a8ad;}.cls-1{stroke-miterlimit:10;stroke-width:2px;stroke-dasharray:15 20;}.cls-2{stroke-miterlimit:10.02;stroke-width:2px;}</style></defs><title>dash_line_and_plane</title><path class="cls-1" d="M1486,139a3004.28,3004.28,0,0,0-365,21c-98.71,11.81-164.86,24-313,40-254.36,27.46-318.21,7-350-34-17.08-22.06-38.56-68.23-23-86,9.23-10.54,31.95-11.62,47-1s22.43,33.05,15,44c-10.4,15.35-45.45,3.6-107-7-71.31-12.28-118.3-20.38-175-13-75.62,9.84-128.43,42-144,52A342,342,0,0,0,0,216" transform="translate(0.75 -69.77)"/><polyline class="cls-2" points="1541.24 67.72 1541.26 67.77 1545.79 75.06 1570.22 114.42 1672.75 45.59 1500.2 1.59 1530.64 50.64"/><polyline class="cls-2" points="1541.24 67.72 1541.17 67.75 1520.62 77.72"/><line class="cls-2" x1="1541.19" y1="67.78" x2="1541.17" y2="67.75"/><polyline class="cls-2" points="1541.19 67.78 1541.26 67.77 1672.75 45.59 1530.64 50.64 1529.96 50.66 1520.62 77.72 1545.78 75.06"/></svg>