<?xml version="1.0" encoding="utf-8"?>
<!-- Generator: Adobe Illustrator 19.0.0, SVG Export Plug-In . SVG Version: 6.00 Build 0)  -->
<svg version="1.1" id="Layer_1" xmlns="http://www.w3.org/2000/svg" xmlns:xlink="http://www.w3.org/1999/xlink" x="0px" y="0px"
	 viewBox="126 127 652 148" style="enable-background:new 126 127 652 148;" xml:space="preserve">
<style type="text/css">
	.st0{fill:#72CFF5;}
	.st1{fill:#FFFFFF;}
</style>
<polygon id="XMLID_36_" class="st0" points="424.8,234.9 407.4,267.3 425.8,267.3 445.6,227.6 "/>
<path id="XMLID_7_" class="st0" d="M175.2,203.8l-40.6-57.3h21l31.4,46.4l31.1-46.4h20.5l-40.3,57.1l44.4,63.7h-21.6l-34.6-52.4
	l-34.8,52.4h-20.4L175.2,203.8z"/>
<path id="XMLID_6_" class="st0" d="M301.7,146.5h76v15.4h-59.6v37.9h55.5v15.4h-55.5v52.2h-16.4V146.5L301.7,146.5z"/>
<path id="XMLID_5_" class="st0" d="M597.8,146.5h16.4v120.9h-16.4V146.5z"/>
<path id="XMLID_13_" class="st0" d="M686.8,146.5h42.5c7.8,0,14.1,1,19.1,3.1c5,2.1,9,4.8,11.9,8c2.9,3.2,4.9,6.9,6.1,10.9
	c1.1,4,1.7,7.9,1.7,11.7c0,3.9-0.7,7.6-2,11.2c-1.4,3.6-3.3,6.8-5.9,9.7c-2.6,2.9-5.7,5.3-9.4,7.3s-7.8,3.2-12.4,3.7l34.3,55.1
	h-20.5L721.5,214h-18.3v53.3h-16.4V146.5L686.8,146.5z M703.2,199.7h21.5c3.2,0,6.4-0.3,9.5-0.8s5.9-1.5,8.4-2.8
	c2.4-1.4,4.4-3.3,5.9-5.9c1.5-2.6,2.2-5.9,2.2-10c0-4.1-0.7-7.4-2.2-10c-1.5-2.6-3.4-4.5-5.9-5.9c-2.4-1.4-5.2-2.3-8.4-2.8
	c-3.1-0.5-6.3-0.8-9.5-0.8h-21.5V199.7z"/>
<polygon id="XMLID_1_" class="st0" points="509.6,227.4 529.4,267.3 547.8,267.3 530.4,234.9 "/>
<g id="XMLID_9_">
	<g id="XMLID_10_">
		<polygon id="XMLID_2_" class="st1" points="477.1,138.1 463.5,218.3 476,228.8 477.8,136.2 479.7,228.9 492.3,218.2 478.6,138.2 
			497.1,217.6 527.9,228.9 477.9,134.7 427.8,228.9 458.9,217.5 		"/>
	</g>
</g>
</svg>
