<svg xmlns="http://www.w3.org/2000/svg" viewBox="0 0 341.07 120"><defs><style>.cls-1{fill:#3fb481;}.cls-1,.cls-2,.cls-3,.cls-4{opacity:0.85;}.cls-2{fill:#ffcd22;}.cls-3{fill:#f6943f;}.cls-4{fill:#add14e;}.cls-5{fill:#fff;}</style></defs><title>Asset 1</title><g id="Layer_2" data-name="Layer 2"><g id="Layer_1-2" data-name="Layer 1"><polygon class="cls-1" points="250.39 105.11 189.7 120 146.47 74.89 163.92 14.89 224.6 0 267.84 45.11 250.39 105.11"/><polygon class="cls-2" points="177.16 105.11 116.47 120 73.23 74.89 90.69 14.89 151.37 0 194.61 45.11 177.16 105.11"/><polygon class="cls-3" points="103.92 105.11 43.24 120 0 74.89 17.45 14.89 78.14 0 121.38 45.11 103.92 105.11"/><polygon class="cls-4" points="323.62 105.11 262.94 120 219.7 74.89 237.15 14.89 297.84 0 341.07 45.11 323.62 105.11"/><path class="cls-5" d="M81.27,95.09,64.17,68.75,47.08,95.09H36.83L59.05,60.9,36.83,26.66H47.08L64.17,53l17.1-26.33h10.3L69.29,60.9,91.57,95.09Z"/><path class="cls-5" d="M110.72,35.23V55.72h25.67V64.3H110.72V95.09H102.2V26.66H145v8.57Z"/><path class="cls-5" d="M224.43,95.09V26.66H233V95.09Z"/><path class="cls-5" d="M294.39,95.09l-17.21-30h-20v30h-8.52V26.66H285a18.41,18.41,0,0,1,13.53,5.73A18.47,18.47,0,0,1,304.24,46a18.17,18.17,0,0,1-5.06,12.8,18.84,18.84,0,0,1-12.31,6.3l17.37,30ZM295.67,46A10.82,10.82,0,0,0,285,35.23H257.19V56.61H285a10.5,10.5,0,0,0,7.52-3.12A10.28,10.28,0,0,0,295.67,46Z"/><polygon class="cls-5" points="158.24 65.83 142.91 95.09 151.94 95.09 169.06 60.87 158.24 65.83"/><polygon class="cls-5" points="198.19 65.83 187.36 61.41 204.01 95.09 213.15 95.09 198.19 65.83"/><polygon class="cls-5" points="176.87 32.59 172.32 56.51 177.75 61.03 178.21 29.34 178.75 60.96 184.02 56.47 179.76 32.83 184.82 56.65 196.35 60.87 178.18 26.66 160 60.87 171.51 56.63 176.87 32.59"/></g></g></svg>