<?xml version="1.0" encoding="utf-8"?>
<!-- Generator: Adobe Illustrator 25.0.1, SVG Export Plug-In . SVG Version: 6.00 Build 0)  -->
<svg version="1.1" xmlns="http://www.w3.org/2000/svg" xmlns:xlink="http://www.w3.org/1999/xlink" x="0px" y="0px"
	 viewBox="0 0 540.59 310.84" style="enable-background:new 0 0 540.59 310.84;" xml:space="preserve">
<style type="text/css">
	.st0{display:none;}
	.st1{display:inline;stroke:#000000;stroke-miterlimit:10;}
	.st2{display:inline;}
	.st3{fill:#F15B6A;}
	.st4{fill:#FFFFFF;}
	.st5{display:none;fill:#FFFFFF;}
	.st6{fill:#FFFFFF;stroke:#FFFFFF;stroke-width:3.25;stroke-miterlimit:10;}
	.st7{fill:none;stroke:#FFFFFF;stroke-width:3.25;stroke-miterlimit:10;}
</style>
<g id="Layer_1" class="st0">
	<rect x="-37.25" y="-91.8" class="st1" width="1000" height="500"/>
</g>
<g id="Layer_3" class="st0">
	<g class="st2">
		<path class="st3" d="M93.44,144.48l-35.7-51h16.95l16.65,24c3.9,5.55,7.8,11.25,11.7,17.25h0.3c4.05-6.15,7.95-12,11.7-17.4
			l16.5-23.85h15.9l-35.55,51l40.65,57.6h-17.1l-20.85-29.7c-4.35-6.15-8.4-12.15-12.3-18h-0.3c-3.9,5.85-7.95,11.85-12,17.55
			l-21.15,30.15H52.79L93.44,144.48z"/>
		<path class="st4" d="M164.09,93.48h64.2v12.9h-49.95v35.1h43.95v12.45h-43.95v48.15h-14.25V93.48z"/>
		<path class="st5" d="M275.69,93.48h13.65l44.85,108.6h-15.3l-12.15-30.3h-48.9l-12.3,30.3h-14.55L275.69,93.48z M262.79,159.33h39
			l-8.85-22.5c-3.45-8.7-7.05-18-10.35-26.85h-0.3c-3.3,8.85-6.9,18-10.65,27.3L262.79,159.33z"/>
		<path class="st4" d="M347.09,93.48h14.25v108.6h-14.25V93.48z"/>
		<path class="st4" d="M385.64,93.48h29.4c10.95,0,21.45,0.45,30.3,5.4c9,4.95,15,13.35,15,25.35c0,11.7-5.7,20.55-13.95,25.5
			c-3.9,2.4-7.95,3.75-12.45,4.5l34.8,47.85h-17.25l-33.15-46.5h-18.45v46.5h-14.25V93.48z M418.34,143.88
			c9.6,0,16.35-1.2,21.3-4.95c4.05-3,6.45-7.5,6.45-13.5c0-6.9-3.15-12.3-8.85-15.45c-5.85-3.15-12.75-3.6-23.25-3.6h-14.1v37.5
			H418.34z"/>
		<path class="st5" d="M546.14,158.73c12.3-14.7,18.15-24.15,18.15-34.35c0-12.6-8.85-19.35-21.45-19.35
			c-7.65,0-16.65,2.55-24.3,8.1v-14.4c5.55-3.6,14.55-6.9,25.05-6.9c19.2,0,34.95,10.95,34.95,31.8c0,14.85-8.1,27.3-20.85,42.6
			l-18.9,22.65l0.15,0.3h43.5v12.9h-72l-0.15-0.3L546.14,158.73z"/>
		<path class="st5" d="M610.64,190.53c-7.05-9.6-10.35-24.45-10.35-42.75c0-18.3,3.3-33.15,10.35-42.75
			c6.45-8.7,15.9-13.2,26.7-13.2c10.8,0,20.25,4.5,26.7,13.2c7.05,9.6,10.35,24.45,10.35,42.75c0,18.3-3.3,33.15-10.35,42.75
			c-6.45,8.7-15.9,13.2-26.7,13.2C626.54,203.73,617.09,199.23,610.64,190.53z M652.34,183.18c6.3-8.1,7.8-22.35,7.8-35.4
			s-1.5-27.3-7.8-35.4c-3.6-4.5-8.55-7.35-15-7.35c-6.45,0-11.4,2.85-15,7.35c-6.3,8.1-7.8,22.35-7.8,35.4s1.5,27.3,7.8,35.4
			c3.6,4.5,8.55,7.35,15,7.35C643.79,190.53,648.74,187.68,652.34,183.18z"/>
		<path class="st5" d="M723.14,158.73c12.3-14.7,18.15-24.15,18.15-34.35c0-12.6-8.85-19.35-21.45-19.35
			c-7.65,0-16.65,2.55-24.3,8.1v-14.4c5.55-3.6,14.55-6.9,25.05-6.9c19.2,0,34.95,10.95,34.95,31.8c0,14.85-8.1,27.3-20.85,42.6
			l-18.9,22.65l0.15,0.3h43.5v12.9h-72l-0.15-0.3L723.14,158.73z"/>
		<path class="st5" d="M804.44,111.03l-24.9,9.6v-13.65l39.15-15.15v110.25h-14.25V111.03z"/>
	</g>
</g>
<g id="Layer_4">
	<path class="st3" d="M93.14,144.48l-35.7-51h16.95l16.65,24c3.9,5.55,7.8,11.25,11.7,17.25h0.3c4.05-6.15,7.95-12,11.7-17.4
		l16.5-23.85h15.9l-35.55,51l40.65,57.6h-17.1l-20.85-29.7c-4.35-6.15-8.4-12.15-12.3-18h-0.3c-3.9,5.85-7.95,11.85-12,17.55
		l-21.15,30.15H52.49L93.14,144.48z"/>
	<path class="st4" d="M171.29,93.48h64.2v12.9h-49.95v35.1h43.95v12.45h-43.95v48.15h-14.25V93.48z"/>
	<g>
		<path class="st4" d="M264.46,163.86c0.27-0.55,32.44-65.38,32.44-65.38h0.18c0,0,31.05,62.92,32.23,65.32l1.62,3.38
			c0,0.01,17.46,35.02,17.46,35.02h4.41L298.84,93.37h-3.7l-53.96,108.83h4.41l17.28-35.02"/>
		<path id="left_1_" class="st6" d="M296.56,98.24c-4.85,35.37-12.57,69.61-18.23,103.6"/>
		<path id="right_2_" class="st6" d="M296.99,98.24c4.85,35.37,12.57,69.61,18.23,103.6"/>
		<path id="bleft_1_" class="st7" d="M243.4,200.54c12.17,0.09,24.33,0.09,36.5-0.01"/>
		<path id="bright_1_" class="st7" d="M313.62,200.54c12.44,0.09,24.89,0.09,37.34-0.01"/>
	</g>
	<path class="st5" d="M290.39,93.48h13.65l44.85,108.6h-15.3l-12.15-30.3h-48.9l-12.3,30.3h-14.55L290.39,93.48z M277.49,159.33h39
		l-8.85-22.5c-3.45-8.7-7.05-18-10.35-26.85h-0.3c-3.3,8.85-6.9,18-10.65,27.3L277.49,159.33z"/>
	<path class="st4" d="M369.29,93.48h14.25v108.6h-14.25V93.48z"/>
	<path class="st4" d="M415.34,93.48h29.4c10.95,0,21.45,0.45,30.3,5.4c9,4.95,15,13.35,15,25.35c0,11.7-5.7,20.55-13.95,25.5
		c-3.9,2.4-7.95,3.75-12.45,4.5l34.8,47.85h-17.25l-33.15-46.5h-18.45v46.5h-14.25V93.48z M448.04,143.88c9.6,0,16.35-1.2,21.3-4.95
		c4.05-3,6.45-7.5,6.45-13.5c0-6.9-3.15-12.3-8.85-15.45c-5.85-3.15-12.75-3.6-23.25-3.6h-14.1v37.5H448.04z"/>
	<path class="st5" d="M590.84,158.73c12.3-14.7,18.15-24.15,18.15-34.35c0-12.6-8.85-19.35-21.45-19.35c-7.65,0-16.65,2.55-24.3,8.1
		v-14.4c5.55-3.6,14.55-6.9,25.05-6.9c19.2,0,34.95,10.95,34.95,31.8c0,14.85-8.1,27.3-20.85,42.6l-18.9,22.65l0.15,0.3h43.5v12.9
		h-72l-0.15-0.3L590.84,158.73z"/>
	<path class="st5" d="M662.84,190.53c-7.05-9.6-10.35-24.45-10.35-42.75c0-18.3,3.3-33.15,10.35-42.75c6.45-8.7,15.9-13.2,26.7-13.2
		c10.8,0,20.25,4.5,26.7,13.2c7.05,9.6,10.35,24.45,10.35,42.75c0,18.3-3.3,33.15-10.35,42.75c-6.45,8.7-15.9,13.2-26.7,13.2
		C678.74,203.73,669.29,199.23,662.84,190.53z M704.54,183.18c6.3-8.1,7.8-22.35,7.8-35.4s-1.5-27.3-7.8-35.4
		c-3.6-4.5-8.55-7.35-15-7.35c-6.45,0-11.4,2.85-15,7.35c-6.3,8.1-7.8,22.35-7.8,35.4s1.5,27.3,7.8,35.4c3.6,4.5,8.55,7.35,15,7.35
		C695.99,190.53,700.94,187.68,704.54,183.18z"/>
	<path class="st5" d="M782.84,158.73c12.3-14.7,18.15-24.15,18.15-34.35c0-12.6-8.85-19.35-21.45-19.35c-7.65,0-16.65,2.55-24.3,8.1
		v-14.4c5.55-3.6,14.55-6.9,25.05-6.9c19.2,0,34.95,10.95,34.95,31.8c0,14.85-8.1,27.3-20.85,42.6l-18.9,22.65l0.15,0.3h43.5v12.9
		h-72l-0.15-0.3L782.84,158.73z"/>
	<path class="st5" d="M871.64,111.03l-24.9,9.6v-13.65l39.15-15.15v110.25h-14.25V111.03z"/>
</g>
</svg>
