<svg id="Layer_1" data-name="Layer 1" xmlns="http://www.w3.org/2000/svg" xmlns:xlink="http://www.w3.org/1999/xlink" viewBox="0 0 727.29 183.24"><defs><style>.cls-1{fill:#fff;}.cls-2{clip-path:url(#clip-path);}.cls-3{clip-path:url(#clip-path-2);}.cls-4{clip-path:url(#clip-path-3);}.cls-5{clip-path:url(#clip-path-4);}.cls-6{clip-path:url(#clip-path-5);}.cls-7{clip-path:url(#clip-path-6);}.cls-8{clip-path:url(#clip-path-7);}</style><clipPath id="clip-path" transform="translate(-596.09 -448.08)"><path class="cls-1" d="M1253.51,550.64l46.4,80.06h-26.24l-46-79.83h-53.37V630.7h-22.7V448.11h96.89c14,0,26,5.09,36.1,15.28s15.28,22.14,15.28,36.32c0,13.07-4.54,24.36-13.51,34.1A49.82,49.82,0,0,1,1253.51,550.64ZM1277,499.71A28.93,28.93,0,0,0,1248.53,471h-74.19v57h74.19A28.53,28.53,0,0,0,1277,499.71Z"/></clipPath><clipPath id="clip-path-2" transform="translate(-596.09 -448.08)"><rect class="cls-1" x="1094.5" y="448.11" width="22.7" height="182.49"/></clipPath><clipPath id="clip-path-3" transform="translate(-596.09 -448.08)"><polygon class="cls-1" points="1026.62 552.64 1066.49 630.71 1042.24 630.71 997.83 540.9 1026.62 552.64"/></clipPath><clipPath id="clip-path-4" transform="translate(-596.09 -448.08)"><polygon class="cls-1" points="884.67 448.11 884.67 471.03 793.2 471.03 793.2 525.62 861.74 525.62 861.74 548.54 793.2 548.54 793.2 630.71 770.5 630.71 770.5 630.59 770.5 448.11 884.67 448.11"/></clipPath><clipPath id="clip-path-5" transform="translate(-596.09 -448.08)"><polygon class="cls-1" points="742.15 448.11 682.69 539.46 742.15 630.59 714.69 630.59 668.96 560.5 623.34 630.71 596.1 630.71 655.34 539.57 596.1 448.11 623.45 448.11 669.07 518.31 714.69 448.11 742.15 448.11"/></clipPath><clipPath id="clip-path-6" transform="translate(-596.09 -448.08)"><polygon class="cls-1" points="973.21 448.14 1021.71 539.5 990.93 528.2 977.42 464.53 988.71 527.76 974.76 539.72 973.32 455.34 972.1 539.83 957.6 527.87 969.67 463.98 955.38 528.09 924.6 539.5 973.21 448.14"/></clipPath><clipPath id="clip-path-7" transform="translate(-596.09 -448.08)"><polygon class="cls-1" points="948.85 540.08 903.12 631.33 879.09 631.33 919.95 553.26 948.85 540.08"/></clipPath></defs><title>xfair_logo</title><path class="cls-1" d="M1253.51,550.64l46.4,80.06h-26.24l-46-79.83h-53.37V630.7h-22.7V448.11h96.89c14,0,26,5.09,36.1,15.28s15.28,22.14,15.28,36.32c0,13.07-4.54,24.36-13.51,34.1A49.82,49.82,0,0,1,1253.51,550.64ZM1277,499.71A28.93,28.93,0,0,0,1248.53,471h-74.19v57h74.19A28.53,28.53,0,0,0,1277,499.71Z" transform="translate(-596.09 -448.08)"/><g class="cls-2"><rect class="cls-1" x="532.52" width="194.77" height="182.41"/></g><rect class="cls-1" x="498.41" y="0.03" width="22.7" height="182.49"/><g class="cls-3"><rect class="cls-1" x="412.49" width="194.77" height="182.41"/></g><polygon class="cls-1" points="430.53 104.56 470.39 182.62 446.14 182.62 401.74 92.82 430.53 104.56"/><g class="cls-4"><rect class="cls-1" x="275.38" width="194.77" height="182.41"/></g><polygon class="cls-1" points="288.57 0.03 288.57 22.95 197.11 22.95 197.11 77.54 265.65 77.54 265.65 100.46 197.11 100.46 197.11 182.62 174.41 182.62 174.41 182.51 174.41 0.03 288.57 0.03"/><g class="cls-5"><rect class="cls-1" x="162.99" width="154.76" height="182.41"/></g><polygon class="cls-1" points="146.06 0.03 86.6 91.38 146.06 182.51 118.6 182.51 72.87 112.42 27.25 182.62 0.01 182.62 59.25 91.49 0.01 0.03 27.36 0.03 72.98 70.23 118.6 0.03 146.06 0.03"/><g class="cls-6"><rect class="cls-1" width="154.76" height="182.41"/></g><polygon class="cls-1" points="377.12 0.06 425.62 91.41 394.83 80.12 381.32 16.45 392.62 79.68 378.67 91.64 377.23 7.26 376.01 91.75 361.5 79.79 373.57 15.89 359.29 80.01 328.5 91.41 377.12 0.06"/><g class="cls-7"><rect class="cls-1" x="275.34" y="0.03" width="194.77" height="182.41"/><polygon class="cls-1" points="430.49 104.59 470.35 182.66 446.1 182.66 401.7 92.85 430.49 104.59"/></g><polygon class="cls-1" points="352.75 92 307.02 183.25 283 183.25 323.86 105.18 352.75 92"/><g class="cls-8"><rect class="cls-1" x="275.34" y="0.62" width="194.77" height="182.41"/><polygon class="cls-1" points="430.49 105.18 470.35 183.25 446.1 183.25 401.7 93.44 430.49 105.18"/><polygon class="cls-1" points="377.12 0.65 425.62 92 394.83 80.71 381.32 17.04 392.62 80.27 378.67 92.22 377.23 7.85 376.01 92.33 361.5 80.38 373.57 16.48 359.29 80.6 328.5 92 377.12 0.65"/></g></svg>