<svg xmlns="http://www.w3.org/2000/svg" viewBox="0 0 652.1 169.19"><defs><style>.cls-1{fill:#fff;}</style></defs><title>Asset 1</title><g id="Layer_2" data-name="Layer 2"><g id="Layer_2-2" data-name="Layer 2"><path class="cls-1" d="M109.85,169.19,67.59,104.07,25.33,169.19H0L54.93,84.66,0,0H25.33L67.59,65.11,109.85,0h25.47L80.26,84.66l55.06,84.52Z"/><path class="cls-1" d="M182.68,21.2V71.86h63.46v21.2H182.68v76.13H161.61V0H267.34V21.2Z"/><path class="cls-1" d="M461.78,169.19V0h21.06V169.19Z"/><path class="cls-1" d="M627.73,169.19,585.2,95.12H535.78v74.06H514.72V0h89.75q19.41,0,33.45,14.18T652.1,47.77a45,45,0,0,1-12.53,31.66A46.57,46.57,0,0,1,609.15,95l43,74.2ZM630.9,47.77A25.56,25.56,0,0,0,623.05,29a25.4,25.4,0,0,0-18.58-7.85H535.78V74.06h68.69a25.92,25.92,0,0,0,18.58-7.71A25.4,25.4,0,0,0,630.9,47.77Z"/><polygon class="cls-1" points="300.16 96.83 262.26 169.19 284.56 169.19 326.9 84.59 300.16 96.83"/><polygon class="cls-1" points="398.91 96.83 372.15 85.93 413.31 169.19 435.89 169.19 398.91 96.83"/><polygon class="cls-1" points="346.2 14.68 334.96 73.8 348.39 84.97 349.52 6.64 350.85 84.81 363.88 73.71 353.36 15.26 365.87 74.15 394.38 84.59 349.43 0 304.49 84.59 332.96 74.11 346.2 14.68"/></g></g></svg>